<?xml version="1.0" encoding="utf-8"?>
<!-- Generator: Adobe Illustrator 21.0.0, SVG Export Plug-In . SVG Version: 6.00 Build 0)  -->
<svg version="1.1" id="Layer_1" xmlns="http://www.w3.org/2000/svg" xmlns:xlink="http://www.w3.org/1999/xlink" x="0px" y="0px"
	 viewBox="0 0 5000 5000" style="enable-background:new 0 0 5000 5000;" xml:space="preserve">
<style type="text/css">
	.st0{fill:url(#SVGID_1_);}
	.st1{fill:url(#SVGID_2_);}
	.st2{fill:url(#SVGID_3_);}
	.st3{fill:url(#SVGID_4_);}
	.st4{fill:url(#SVGID_5_);}
	.st5{fill:url(#SVGID_6_);}
	.st6{fill:url(#SVGID_7_);}
	.st7{fill:url(#SVGID_8_);}
	.st8{fill:url(#SVGID_9_);}
	.st9{fill:url(#SVGID_10_);}
	.st10{fill:url(#SVGID_11_);}
	.st11{fill:url(#SVGID_12_);}
	.st12{fill:url(#SVGID_13_);}
	.st13{fill:url(#SVGID_14_);}
	.st14{fill:url(#SVGID_15_);}
	.st15{fill:url(#SVGID_16_);}
</style>
<g>
	<g>
		<linearGradient id="SVGID_1_" gradientUnits="userSpaceOnUse" x1="532.6493" y1="2180.175" x2="920.273" y2="2180.175">
			<stop  offset="0" style="stop-color:#FF9C27"/>
			<stop  offset="1" style="stop-color:#FD48CE"/>
		</linearGradient>
		<path class="st0" d="M729.4,2082.2c-102.4,0-185.4,83-185.4,185.4v10.5h63v-10.5c0-67.5,54.9-122.5,122.5-122.5
			c67.5,0,122.5,54.9,122.5,122.5v10.5h63v-10.5C914.8,2165.2,831.8,2082.2,729.4,2082.2z"/>
		<g>
			<linearGradient id="SVGID_2_" gradientUnits="userSpaceOnUse" x1="608.6673" y1="2802.2703" x2="951.9747" y2="2802.2703">
				<stop  offset="0" style="stop-color:#FF9C27"/>
				<stop  offset="1" style="stop-color:#FD48CE"/>
			</linearGradient>
			<polygon class="st1" points="921.9,2738.8 725.7,2686.9 780.3,2880.7 824.2,2836.7 898,2917.7 950.3,2863 873.1,2787.8 			"/>
			<linearGradient id="SVGID_3_" gradientUnits="userSpaceOnUse" x1="608.6673" y1="2800.7319" x2="951.9747" y2="2800.7319">
				<stop  offset="0" style="stop-color:#FF9C27"/>
				<stop  offset="1" style="stop-color:#FD48CE"/>
			</linearGradient>
			<polygon class="st2" points="619.1,2830.5 630.8,2843.3 709.3,2770.9 697.5,2758.2 			"/>
			<linearGradient id="SVGID_4_" gradientUnits="userSpaceOnUse" x1="608.6673" y1="2717.2659" x2="951.9747" y2="2717.2659">
				<stop  offset="0" style="stop-color:#FF9C27"/>
				<stop  offset="1" style="stop-color:#FD48CE"/>
			</linearGradient>
			<polygon class="st3" points="663.5,2704.4 557.3,2712.9 558.7,2730.1 664.8,2721.7 			"/>
			<linearGradient id="SVGID_5_" gradientUnits="userSpaceOnUse" x1="608.6673" y1="2607.6438" x2="951.9747" y2="2607.6438">
				<stop  offset="0" style="stop-color:#FF9C27"/>
				<stop  offset="1" style="stop-color:#FD48CE"/>
			</linearGradient>
			<polygon class="st4" points="685.3,2640.4 617.6,2563.5 604.6,2574.9 672.3,2651.8 			"/>
			<linearGradient id="SVGID_6_" gradientUnits="userSpaceOnUse" x1="608.6673" y1="2574.1809" x2="951.9747" y2="2574.1809">
				<stop  offset="0" style="stop-color:#FF9C27"/>
				<stop  offset="1" style="stop-color:#FD48CE"/>
			</linearGradient>
			<polygon class="st5" points="751.7,2521.1 747.1,2626.5 764.4,2627.3 769,2521.9 			"/>
			<linearGradient id="SVGID_7_" gradientUnits="userSpaceOnUse" x1="608.6673" y1="2622.2605" x2="951.9747" y2="2622.2605">
				<stop  offset="0" style="stop-color:#FF9C27"/>
				<stop  offset="1" style="stop-color:#FD48CE"/>
			</linearGradient>
			<polygon class="st6" points="866.7,2576 799.8,2657.5 813.2,2668.5 880.1,2587 			"/>
			<linearGradient id="SVGID_8_" gradientUnits="userSpaceOnUse" x1="367.7646" y1="2518.5122" x2="1122.7371" y2="2518.5122">
				<stop  offset="0" style="stop-color:#FF9C27"/>
				<stop  offset="1" style="stop-color:#FD48CE"/>
			</linearGradient>
			<path class="st7" d="M1108.2,2413.1c-11.9-77.7-78.7-135-157.3-135H530.7c-82.3,0-151.1,62.8-158.5,144.8l11.4,336h3.7
				c34.2-173.8,185.2-304.7,366.4-304.7s332.2,130.9,366.4,304.7h4.7L1108.2,2413.1z M643.9,2376.9c-39.7,1.1-79.6,1.4-119.3,1.5
				c-9.8,0-20.3-0.3-29.5,0c-8.7,0.3-17.1,3.4-24.2,8.3c-7.1,4.9-12.9,12-16.2,20.2c-1.8,4-2.7,8.3-3.3,12.7
				c-0.4,4.1-0.4,9.5-0.6,14.4c-0.9,39.7-2.7,79.6-5.5,119.3c-2.7-39.7-4.5-79.6-5.5-119.3c-0.1-5.1-0.4-9.7-0.1-15.5
				c0.5-5.5,1.5-11,3.5-16.2c3.8-10.4,10.8-19.7,19.8-26.4c9-6.7,20-10.7,31.2-11.3c10.7-0.4,20.2-0.2,30.2-0.4
				c39.7,0.1,79.6,0.4,119.3,1.5c39.8,0.9,79.6,2.7,119.4,5.5C723.5,2374.1,683.7,2376,643.9,2376.9z"/>
		</g>
	</g>
	<g>
		<linearGradient id="SVGID_9_" gradientUnits="userSpaceOnUse" x1="1367.4421" y1="2517.8604" x2="4603.3252" y2="2517.8604">
			<stop  offset="0" style="stop-color:#FF9C27"/>
			<stop  offset="1" style="stop-color:#FD48CE"/>
		</linearGradient>
		<path class="st8" d="M1314.4,2518.2c0-151.9,89.8-256.4,237.4-256.4c148.3,0,238.1,105.9,238.1,256.4
			c0,152.7-86.9,255.7-238.1,255.7S1314.4,2670.2,1314.4,2518.2z M1415.9,2518.2c0,97.2,43.1,170.2,135.9,170.2
			c92.8,0,136.6-70.1,136.6-170.2c0-97.9-43.8-168-136.6-168C1459,2350.2,1415.9,2421.8,1415.9,2518.2z"/>
		<linearGradient id="SVGID_10_" gradientUnits="userSpaceOnUse" x1="1367.4421" y1="2646.7874" x2="4603.3252" y2="2646.7874">
			<stop  offset="0" style="stop-color:#FF9C27"/>
			<stop  offset="1" style="stop-color:#FD48CE"/>
		</linearGradient>
		<path class="st9" d="M1936,2869.6c0,32.1-16.1,48.2-48.2,48.2h-48.9v-369.6c5.1-115.4,65-172.4,181.2-172.4
			c119.8,0,179.7,65,179.7,195c0,131.5-51.1,199.4-154.1,203.1c-48.2,0-84.7-19.7-109.6-59.9V2869.6z M2018.6,2687
			c52.6,0,79.6-37.3,81.8-111.8c0-78.2-27.8-116.9-83.3-116.9s-81.8,38.7-81.1,116.9C1939,2649.7,1966,2687,2018.6,2687z"/>
		<linearGradient id="SVGID_11_" gradientUnits="userSpaceOnUse" x1="1367.4421" y1="2574.8367" x2="4603.3252" y2="2574.8367">
			<stop  offset="0" style="stop-color:#FF9C27"/>
			<stop  offset="1" style="stop-color:#FD48CE"/>
		</linearGradient>
		<path class="st10" d="M2417.4,2775.4c-116.9-3.7-175.3-71.6-175.3-203.1c0-131.5,59.2-197.2,176.8-198
			c122.7,0,180.4,75.2,173.1,226.4h-249.8c3.7,59.2,29.2,89.1,76.7,89.1c22.6,0,43.8-9.5,62.8-27.8c8.8-9.5,19.7-13.9,32.9-13.9
			h71.6C2565,2730.1,2512.4,2775.4,2417.4,2775.4z M2343.6,2531.4H2489c-5.8-51.1-29.9-77.4-71.6-77.4
			C2375.8,2453.9,2350.9,2480.2,2343.6,2531.4z"/>
		<linearGradient id="SVGID_12_" gradientUnits="userSpaceOnUse" x1="1367.4421" y1="2570.4539" x2="4603.3252" y2="2570.4539">
			<stop  offset="0" style="stop-color:#FF9C27"/>
			<stop  offset="1" style="stop-color:#FD48CE"/>
		</linearGradient>
		<path class="st11" d="M2917,2766.6c-32.1-2.2-48.2-17.5-48.2-48.2v-198.7c-2.2-40.2-24.1-59.9-67.2-59.9
			c-43.1,0-65,19.7-65.7,59.9v246.9h-98.6v-227.2c0-110.3,55.5-165.1,165.8-165.1s164.4,54.8,163.6,165.1v227.2H2917z"/>
		<linearGradient id="SVGID_13_" gradientUnits="userSpaceOnUse" x1="1367.4421" y1="2517.8567" x2="4603.3252" y2="2517.8567">
			<stop  offset="0" style="stop-color:#FF9C27"/>
			<stop  offset="1" style="stop-color:#FD48CE"/>
		</linearGradient>
		<path class="st12" d="M3314.4,2628.5c0-24.1-14.6-40.2-45.3-48.9c-29.2-8.8-62.8-17.5-98.6-27c-97.2-24.8-145.4-70.1-145.4-135.9
			c2.2-104.5,64.3-155.6,187-154.9c116.9,0,177.5,51.1,183.3,154.1h-57c-21.2,0-35.8-10.2-45.3-29.2c-16.8-28.5-46.7-42.4-89.8-42.4
			c-52.6,0.7-78.9,20.5-81.1,58.4c0,31.4,31.4,54.1,96.4,68.7c37.3,8.8,76.7,19.7,118.3,34.3c55.5,19,81.8,59.9,78.9,122.7
			c-5.8,97.2-71.6,145.4-197.2,145.4c-131.5,0-198-54.8-200.9-162.9h98.6c3.7,52.6,37.3,78.9,102.3,78.9
			C3283.7,2689.9,3315.1,2669.4,3314.4,2628.5z"/>
		<linearGradient id="SVGID_14_" gradientUnits="userSpaceOnUse" x1="1367.4421" y1="2518.2258" x2="4603.3252" y2="2518.2258">
			<stop  offset="0" style="stop-color:#FF9C27"/>
			<stop  offset="1" style="stop-color:#FD48CE"/>
		</linearGradient>
		<path class="st13" d="M3645.3,2461.2c-57.7,0-82.5,48.2-82.5,107.4v198h-97.2v-496.7h48.9c32.1,0,48.2,16.8,48.2,48.9v115.4
			c49.7-57,110.3-73,182.6-47.5c54.1,19.7,79.6,71.6,76.7,155.6v224.3h-96.4v-198C3725.6,2503.6,3700.8,2461.2,3645.3,2461.2z"/>
		<linearGradient id="SVGID_15_" gradientUnits="userSpaceOnUse" x1="1367.4421" y1="2574.8367" x2="4603.3252" y2="2574.8367">
			<stop  offset="0" style="stop-color:#FF9C27"/>
			<stop  offset="1" style="stop-color:#FD48CE"/>
		</linearGradient>
		<path class="st14" d="M4220.2,2575.2c0,132.9-59.2,200.1-176,200.1c-116.9,0-175.3-67.2-175.3-200.1
			c0-134.4,58.4-200.9,175.3-200.9C4161,2374.3,4220.2,2440.8,4220.2,2575.2z M3967.4,2575.2c0.7,75.2,26.3,113.2,76,113.2
			c49.7,0,74.5-39.4,75.2-116.1c0-75.2-24.8-112.5-74.5-112.5C3993,2459.8,3967.4,2498.5,3967.4,2575.2z"/>
		<linearGradient id="SVGID_16_" gradientUnits="userSpaceOnUse" x1="1367.4421" y1="2646.7874" x2="4603.3252" y2="2646.7874">
			<stop  offset="0" style="stop-color:#FF9C27"/>
			<stop  offset="1" style="stop-color:#FD48CE"/>
		</linearGradient>
		<path class="st15" d="M4364.1,2869.6c0,32.1-16.1,48.2-48.2,48.2h-48.9v-369.6c5.1-115.4,65-172.4,181.2-172.4
			c119.8,0,179.7,65,179.7,195c0,131.5-51.1,199.4-154.1,203.1c-48.2,0-84.7-19.7-109.6-59.9V2869.6z M4446.6,2687
			c52.6,0,79.6-37.3,81.8-111.8c0-78.2-27.8-116.9-83.3-116.9s-81.8,38.7-81.1,116.9C4367,2649.7,4394,2687,4446.6,2687z"/>
	</g>
</g>
</svg>
